<?xml version="1.0" standalone="no"?><!DOCTYPE svg PUBLIC "-//W3C//DTD SVG 1.1//EN" "http://www.w3.org/Graphics/SVG/1.1/DTD/svg11.dtd"><svg t="1726066090640" class="icon" viewBox="0 0 1024 1024" version="1.1" xmlns="http://www.w3.org/2000/svg" p-id="8890" xmlns:xlink="http://www.w3.org/1999/xlink" width="200" height="200"><path d="M128 0a128 128 0 0 0-128 128v768a128 128 0 0 0 128 128h768a128 128 0 0 0 128-128V128a128 128 0 0 0-128-128H128z m840 288A96 96 0 0 1 872.96 384l-128.32 225.216a96 96 0 1 1-151.936 8.704L470.272 451.2a95.872 95.872 0 0 1-46.976 3.456l-163.072 190.208a32.192 32.192 0 0 1-6.656 5.888 96 96 0 1 1-35.456-55.04l148.672-173.44a96 96 0 1 1 153.984-10.368l123.456 168.256a96 96 0 0 1 44.736-2.56l122.496-215.04A96 96 0 1 1 968 288z" fill="#8198AA" p-id="8891"></path></svg>